<svg width="35" height="35" viewBox="0 0 35 35" fill="none" xmlns="http://www.w3.org/2000/svg">
<g clip-path="url(#clip0_204_11)">
<path d="M27.7083 35H24.7917V31.9375C24.2083 31.7917 23.7708 31.6458 23.3333 31.3542L21.1458 33.5417L19.1042 31.5L21.2917 29.3125C21 28.875 20.8542 28.2917 20.7083 27.8542H17.5V24.9375H20.5625C20.7083 24.3542 20.8542 23.9167 21.1458 23.4792L18.9583 21.2917L21 19.25L23.1875 21.4375C23.625 21.1458 24.2083 21 24.6458 20.8542V17.5H27.5625V20.5625C28.1458 20.7083 28.5833 20.8542 29.0208 21.1458L31.2083 18.9583L33.25 21L31.2083 23.3333C31.5 23.7708 31.6458 24.3542 31.7917 24.7917H35V27.7083H31.9375C31.7917 28.2917 31.6458 28.7292 31.3542 29.1667L33.5417 31.3542L31.5 33.3958L29.1667 31.2083C28.7292 31.5 28.1458 31.6458 27.7083 31.7917V35ZM26.25 23.3333C24.6458 23.3333 23.3333 24.6458 23.3333 26.25C23.3333 27.8542 24.6458 29.1667 26.25 29.1667C27.8542 29.1667 29.1667 27.8542 29.1667 26.25C29.1667 24.6458 27.8542 23.3333 26.25 23.3333Z" fill="#C8C8C8"/>
<path d="M2.91667 27.7083C2.91667 22.0208 7.4375 17.5 13.125 17.5C15.75 17.5 16.4792 17.7917 18.375 18.6667L19.8333 16.3333C19.3958 16.0417 18.8125 15.8958 18.5208 15.6042C20.5625 14 21.875 11.5208 21.875 8.75C21.875 3.9375 17.9375 0 13.125 0C8.3125 0 4.375 3.9375 4.375 8.75C4.375 11.5208 5.6875 14.1458 7.875 15.75C3.20833 17.7917 0 22.3125 0 27.7083V35H16.0417V32.0833H2.91667V27.7083ZM7.29167 8.75C7.29167 5.54167 9.91667 2.91667 13.125 2.91667C16.3333 2.91667 18.9583 5.54167 18.9583 8.75C18.9583 11.9583 16.3333 14.5833 13.125 14.5833C9.91667 14.5833 7.29167 11.9583 7.29167 8.75Z" fill="#C8C8C8"/>
</g>
<defs>
<clipPath id="clip0_204_11">
<rect width="35" height="35" fill="white"/>
</clipPath>
</defs>
</svg>
