<svg width="35" height="35" viewBox="0 0 35 35" fill="none" xmlns="http://www.w3.org/2000/svg">
<g clip-path="url(#clip0_204_65)">
<path fill-rule="evenodd" clip-rule="evenodd" d="M28.4375 6.5625C28.4375 5.98234 28.207 5.42594 27.7968 5.0157C27.3866 4.60547 26.8302 4.375 26.25 4.375H8.75C8.16984 4.375 7.61344 4.60547 7.2032 5.0157C6.79297 5.42594 6.5625 5.98234 6.5625 6.5625V28.4375C6.5625 29.0177 6.79297 29.5741 7.2032 29.9843C7.61344 30.3945 8.16984 30.625 8.75 30.625H17.5V28.4375H8.75V6.5625H26.25V13.125H28.4375V6.5625Z" fill="#33A29F"/>
<path d="M17.5 19.6875H10.9375V21.875H17.5V19.6875Z" fill="#33A29F"/>
<path d="M24.0625 15.3125H10.9375V17.5H24.0625V15.3125Z" fill="#33A29F"/>
<path fill-rule="evenodd" clip-rule="evenodd" d="M24.0625 10.9375V13.125H10.9375V10.9375H24.0625Z" fill="#33A29F"/>
<path fill-rule="evenodd" clip-rule="evenodd" d="M27.3438 25.1562L32.8125 27.3438V25.1562L27.3438 22.4219V19.6875C27.3438 19.3974 27.2285 19.1192 27.0234 18.9141C26.8183 18.709 26.5401 18.5938 26.25 18.5938C25.9599 18.5938 25.6817 18.709 25.4766 18.9141C25.2715 19.1192 25.1562 19.3974 25.1562 19.6875V22.4219L19.6875 25.1562V27.3438L25.1562 25.1562V28.9844L22.9688 30.625V31.7188L26.25 30.625L29.5312 31.7188V30.625L27.3438 28.9844V25.1562Z" fill="#33A29F"/>
</g>
<defs>
<clipPath id="clip0_204_65">
<rect width="35" height="35" fill="white"/>
</clipPath>
</defs>
</svg>
