<svg width="25" height="25" viewBox="0 0 25 25" fill="none" xmlns="http://www.w3.org/2000/svg">
<g clip-path="url(#clip0_23_334)">
<path d="M10.1318 0.0341873C7.99804 0.219734 6.03027 0.986336 4.27245 2.30958C3.76952 2.69044 2.69042 3.76954 2.30956 4.27247C0.32714 6.89942 -0.400399 10.0244 0.224601 13.1836C0.849601 16.3281 2.91503 19.1309 5.74706 20.6641C9.5703 22.7441 14.1846 22.3975 17.6514 19.7803L18.042 19.4824L20.7031 22.1338C22.168 23.5938 23.4277 24.8242 23.501 24.8731C23.7109 25 24.082 25.0293 24.3359 24.9316C24.5947 24.834 24.8682 24.5508 24.9512 24.292C25.0244 24.0674 24.9853 23.6865 24.873 23.501C24.8242 23.4277 23.5937 22.168 22.1338 20.7031L19.4824 18.042L19.7803 17.6514C23.9404 12.1387 22.085 4.2627 15.8935 1.15723C14.1748 0.292976 11.9971 -0.131828 10.1318 0.0341873ZM12.2412 2.12891C16.6992 2.77833 19.9707 6.53809 19.9707 11.0107C19.9707 15.9619 15.9619 19.9707 11.0107 19.9707C7.61718 19.9707 4.55566 18.0859 3.0078 15.0391C1.89941 12.8613 1.73827 10.293 2.57323 7.98341C3.24706 6.10841 4.58007 4.45313 6.24023 3.42286C7.01659 2.93946 7.97851 2.52442 8.78905 2.31446C9.7998 2.05567 11.2256 1.97755 12.2412 2.12891Z" fill="black"/>
</g>
<defs>
<clipPath id="clip0_23_334">
<rect width="25" height="25" fill="white"/>
</clipPath>
</defs>
</svg>
